<svg width="9" height="18" viewBox="0 0 9 18" fill="none" xmlns="http://www.w3.org/2000/svg">
<path d="M5.50112 7.14961C3.70359 6.38472 3.56928 6.0626 3.56928 5.65839C3.56928 5.38717 3.69319 4.75594 4.84129 4.75594C5.89126 4.75594 6.54719 5.13048 6.90071 5.33259L7.70482 5.79486L8.76042 3.00845L8.17164 2.67268C7.51332 2.29923 6.81515 2.06376 6.04094 1.95436V0H3.23243V2.1099C1.42884 2.65319 0.312152 4.08831 0.312152 5.87263C0.312152 8.22319 2.18572 9.27511 4.01769 9.99364C5.43418 10.567 5.72446 11.0414 5.72446 11.5772C5.72446 12.2443 5.11142 12.6925 4.19879 12.6925C3.04896 12.6925 2.17315 12.1986 1.85017 11.9859L1.00903 11.4327L0 14.2492L0.487833 14.5953C1.13402 15.0583 2.11033 15.4085 3.11524 15.5409V17.5464H5.92397V15.3631C7.79558 14.8133 9 13.274 9 11.4214C9 9.4536 7.92057 8.13589 5.50112 7.14961Z" fill="white"/>
</svg>
