<svg width="16" height="16" viewBox="0 0 16 16" fill="none" xmlns="http://www.w3.org/2000/svg">
<path d="M8.66667 6.33333H12V5H8.66667V6.33333ZM8.66667 11H12V9.66667H8.66667V11ZM12.6667 14H3.33333C2.97971 14 2.64057 13.8595 2.39052 13.6095C2.14048 13.3594 2 13.0203 2 12.6667V3.33333C2 2.97971 2.14048 2.64057 2.39052 2.39052C2.64057 2.14048 2.97971 2 3.33333 2H12.6667C13.0203 2 13.3594 2.14048 13.6095 2.39052C13.8595 2.64057 14 2.97971 14 3.33333V12.6667C14 13.0203 13.8595 13.3594 13.6095 13.6095C13.3594 13.8595 13.0203 14 12.6667 14ZM4 7.33333H7.33333V4H4V7.33333ZM4.66667 4.66667H6.66667V6.66667H4.66667V4.66667ZM4 12H7.33333V8.66667H4V12ZM4.66667 9.33333H6.66667V11.3333H4.66667V9.33333Z" fill="white"/>
</svg>
