<svg width="16" height="14" viewBox="0 0 16 14" fill="none" xmlns="http://www.w3.org/2000/svg">
<path d="M6.73684 8.42105C7.57895 8.42105 8.46316 8.55579 9.43158 8.79158C8.74947 9.52421 8.42105 10.3832 8.42105 11.3684C8.42105 12.1179 8.63158 12.8253 9.0779 13.4737H0V11.7895C0 10.7874 0.766315 9.97895 2.30737 9.36421C3.84842 8.74105 5.33053 8.42105 6.73684 8.42105ZM6.73684 6.73684C5.82737 6.73684 5.05263 6.40842 4.36211 5.75158C3.68842 5.09474 3.36842 4.30316 3.36842 3.36842C3.36842 2.45895 3.68842 1.68421 4.36211 0.993684C5.05263 0.32 5.82737 0 6.73684 0C7.67158 0 8.46316 0.32 9.12 0.993684C9.77684 1.68421 10.1053 2.45895 10.1053 3.36842C10.1053 4.30316 9.77684 5.09474 9.12 5.75158C8.46316 6.40842 7.67158 6.73684 6.73684 6.73684ZM13.0526 5.05263H14.3158H16V6.73684H14.3158V11.3684C14.3158 11.9268 14.094 12.4623 13.6992 12.8571C13.3044 13.2519 12.7689 13.4737 12.2105 13.4737C11.6522 13.4737 11.1167 13.2519 10.7219 12.8571C10.3271 12.4623 10.1053 11.9268 10.1053 11.3684C10.1053 10.8101 10.3271 10.2746 10.7219 9.87978C11.1167 9.48496 11.6522 9.26316 12.2105 9.26316C12.5137 9.26316 12.7916 9.32211 13.0526 9.44V5.05263Z" fill="white"/>
</svg>
