<svg width="20" height="20" viewBox="0 0 20 20" fill="none" xmlns="http://www.w3.org/2000/svg">
<path fill-rule="evenodd" clip-rule="evenodd" d="M19.1673 14.1673C19.1673 14.6673 18.834 15.0007 18.334 15.0007H1.66732C1.16732 15.0007 0.833984 14.6673 0.833984 14.1673C0.833984 13.6673 1.16732 13.334 1.66732 13.334C2.58398 13.334 3.33398 12.584 3.33398 11.6673V7.50065C3.33398 3.83398 6.33398 0.833984 10.0007 0.833984C13.6673 0.833984 16.6673 3.83398 16.6673 7.50065V11.6673C16.6673 12.584 17.4173 13.334 18.334 13.334C18.834 13.334 19.1673 13.6673 19.1673 14.1673ZM12.1673 17.9173C11.6673 18.7507 10.834 19.1673 10.0007 19.1673C9.58399 19.1673 9.16732 19.084 8.75065 18.834C8.33399 18.584 8.08399 18.334 7.83399 17.9173C7.58399 17.5007 7.75065 17.0007 8.16732 16.7507C8.58399 16.5007 9.08399 16.6673 9.33399 17.084C9.35921 17.1092 9.38444 17.1421 9.41198 17.178L9.41199 17.178C9.47542 17.2606 9.55111 17.3592 9.66732 17.4173C10.084 17.6673 10.584 17.5007 10.834 17.084C11.084 16.6673 11.584 16.584 12.0007 16.7507C12.4173 16.9173 12.4173 17.5007 12.1673 17.9173ZM15.0007 11.6673C15.0007 12.2507 15.1673 12.834 15.4173 13.334H4.58398C4.83398 12.834 5.00065 12.2507 5.00065 11.6673V7.50065C5.00065 4.75065 7.25065 2.50065 10.0007 2.50065C12.7507 2.50065 15.0007 4.75065 15.0007 7.50065V11.6673Z" fill="#3D3D3D"/>
<mask id="mask0_470_307" style="mask-type:alpha" maskUnits="userSpaceOnUse" x="0" y="0" width="20" height="20">
<path fill-rule="evenodd" clip-rule="evenodd" d="M19.1673 14.1673C19.1673 14.6673 18.834 15.0007 18.334 15.0007H1.66732C1.16732 15.0007 0.833984 14.6673 0.833984 14.1673C0.833984 13.6673 1.16732 13.334 1.66732 13.334C2.58398 13.334 3.33398 12.584 3.33398 11.6673V7.50065C3.33398 3.83398 6.33398 0.833984 10.0007 0.833984C13.6673 0.833984 16.6673 3.83398 16.6673 7.50065V11.6673C16.6673 12.584 17.4173 13.334 18.334 13.334C18.834 13.334 19.1673 13.6673 19.1673 14.1673ZM12.1673 17.9173C11.6673 18.7507 10.834 19.1673 10.0007 19.1673C9.58399 19.1673 9.16732 19.084 8.75065 18.834C8.33399 18.584 8.08399 18.334 7.83399 17.9173C7.58399 17.5007 7.75065 17.0007 8.16732 16.7507C8.58399 16.5007 9.08399 16.6673 9.33399 17.084C9.35921 17.1092 9.38444 17.1421 9.41198 17.178L9.41199 17.178C9.47542 17.2606 9.55111 17.3592 9.66732 17.4173C10.084 17.6673 10.584 17.5007 10.834 17.084C11.084 16.6673 11.584 16.584 12.0007 16.7507C12.4173 16.9173 12.4173 17.5007 12.1673 17.9173ZM15.0007 11.6673C15.0007 12.2507 15.1673 12.834 15.4173 13.334H4.58398C4.83398 12.834 5.00065 12.2507 5.00065 11.6673V7.50065C5.00065 4.75065 7.25065 2.50065 10.0007 2.50065C12.7507 2.50065 15.0007 4.75065 15.0007 7.50065V11.6673Z" fill="white"/>
</mask>
<g mask="url(#mask0_470_307)">
<rect width="20" height="20" fill="#3D3D3D"/>
</g>
</svg>
