<svg width="270" height="40" viewBox="0 0 270 40" fill="none" xmlns="http://www.w3.org/2000/svg">
<path d="M88 16C89.5913 16 91.1174 16.6321 92.2426 17.7574C93.3679 18.8826 94 20.4087 94 22V29H90V22C90 21.4696 89.7893 20.9609 89.4142 20.5858C89.0391 20.2107 88.5304 20 88 20C87.4696 20 86.9609 20.2107 86.5858 20.5858C86.2107 20.9609 86 21.4696 86 22V29H82V22C82 20.4087 82.6321 18.8826 83.7574 17.7574C84.8826 16.6321 86.4087 16 88 16V16Z" stroke="white" stroke-width="2" stroke-linecap="round" stroke-linejoin="round"/>
<path d="M78 17H74V29H78V17Z" stroke="white" stroke-width="2" stroke-linecap="round" stroke-linejoin="round"/>
<path d="M76 14C77.1046 14 78 13.1046 78 12C78 10.8954 77.1046 10 76 10C74.8954 10 74 10.8954 74 12C74 13.1046 74.8954 14 76 14Z" stroke="white" stroke-width="2" stroke-linecap="round" stroke-linejoin="round"/>
<path d="M12 10H9C7.67392 10 6.40215 10.5268 5.46447 11.4645C4.52678 12.4021 4 13.6739 4 15V18H1V22H4V30H8V22H11L12 18H8V15C8 14.7348 8.10536 14.4804 8.29289 14.2929C8.48043 14.1054 8.73478 14 9 14H12V10Z" stroke="white" stroke-width="2" stroke-linecap="round" stroke-linejoin="round"/>
<path d="M170.074 17.0021C167.804 9.41214 164.534 7.65214 156.994 9.92214C149.454 12.1921 147.644 15.4621 149.914 23.0021C152.184 30.5421 155.454 32.3521 162.994 30.0821C170.534 27.8121 172.344 24.5421 170.074 17.0021Z" stroke="white" stroke-width="2" stroke-linecap="round" stroke-linejoin="round"/>
<path d="M160.564 13.9922L164.144 24.3922" stroke="white" stroke-width="2" stroke-linecap="round" stroke-linejoin="round"/>
<path d="M155.844 15.6113L159.424 26.0113" stroke="white" stroke-width="2" stroke-linecap="round" stroke-linejoin="round"/>
<path d="M164.384 15.8516L153.984 19.4316" stroke="white" stroke-width="2" stroke-linecap="round" stroke-linejoin="round"/>
<path d="M166.004 20.5723L155.604 24.1523" stroke="white" stroke-width="2" stroke-linecap="round" stroke-linejoin="round"/>
<path d="M248 11.0101C247.042 11.6855 245.982 12.2022 244.86 12.5401C244.258 11.8476 243.457 11.3567 242.567 11.134C241.677 10.9112 240.739 10.9673 239.882 11.2945C239.025 11.6218 238.288 12.2045 237.773 12.9638C237.258 13.7231 236.988 14.6224 237 15.5401V16.5401C235.243 16.5856 233.501 16.1959 231.931 15.4055C230.361 14.6151 229.01 13.4487 228 12.0101C228 12.0101 224 21.0101 233 25.0101C230.941 26.408 228.487 27.109 226 27.0101C235 32.0101 246 27.0101 246 15.5101C245.999 15.2315 245.972 14.9537 245.92 14.6801C246.941 13.6735 247.661 12.4028 248 11.0101V11.0101Z" stroke="white" stroke-width="2" stroke-linecap="round" stroke-linejoin="round"/>
</svg>
