<svg width="16" height="16" viewBox="0 0 16 16" fill="none" xmlns="http://www.w3.org/2000/svg">
<path d="M13.2238 5.05072C13.2691 5.0976 13.3128 5.14447 13.355 5.19447C13.366 5.20853 13.3816 5.2226 13.391 5.23822C13.3863 5.23197 13.3222 5.14604 13.3582 5.1976C13.3769 5.22572 13.3972 5.25228 13.416 5.28041C13.4878 5.38822 13.5472 5.50229 13.5972 5.61947C13.5816 5.58197 13.566 5.54447 13.5503 5.50697C13.6191 5.67416 13.6675 5.8476 13.6941 6.02729C13.6878 5.9851 13.6832 5.94447 13.6769 5.90229C13.7035 6.09447 13.7035 6.28822 13.6769 6.48041C13.6832 6.43822 13.6878 6.3976 13.6941 6.35541C13.6675 6.5351 13.6207 6.70853 13.5503 6.87572C13.566 6.83822 13.5816 6.80072 13.5972 6.76322C13.5472 6.88197 13.4863 6.99603 13.416 7.10228C13.3972 7.13041 13.3785 7.15697 13.3582 7.1851C13.3222 7.23666 13.3832 7.14916 13.391 7.14447C13.38 7.15385 13.3707 7.16947 13.3628 7.18041C13.3191 7.23353 13.2722 7.2851 13.2238 7.33353C13.1785 7.37885 13.13 7.4226 13.08 7.46479C13.0691 7.47416 13.0566 7.48353 13.0441 7.49291C13.005 7.52572 13.1457 7.41791 13.0769 7.46791C13.0519 7.4851 13.0285 7.50229 13.0035 7.51947C12.8941 7.59291 12.7769 7.65541 12.655 7.70697C12.6925 7.69135 12.73 7.67572 12.7675 7.6601C12.6003 7.72885 12.4269 7.77728 12.2472 7.80385C12.2894 7.7976 12.33 7.79291 12.3722 7.78666C12.18 7.81322 11.9863 7.81322 11.7941 7.78666C11.8363 7.79291 11.8769 7.7976 11.9191 7.80385C11.7394 7.77728 11.566 7.73041 11.3988 7.6601C11.4363 7.67572 11.4738 7.69135 11.5113 7.70697C11.3925 7.65697 11.2785 7.59604 11.1722 7.52572C11.1441 7.50697 11.1175 7.48822 11.0894 7.46791C11.0379 7.43197 11.1254 7.49291 11.13 7.50072C11.1207 7.48978 11.105 7.48041 11.0941 7.4726C11.041 7.42885 10.9894 7.38197 10.941 7.33353C10.8957 7.28822 10.8519 7.23979 10.8097 7.18979C10.8004 7.17885 10.791 7.16635 10.7816 7.15385C10.7488 7.11478 10.8566 7.25541 10.8066 7.18666C10.7894 7.16166 10.7722 7.13822 10.755 7.11322C10.6816 7.00385 10.6191 6.88666 10.5675 6.76478C10.5832 6.80228 10.5988 6.83979 10.6144 6.87729C10.5457 6.7101 10.4972 6.53666 10.4707 6.35697C10.4769 6.39916 10.4816 6.43978 10.4879 6.48197C10.4613 6.28978 10.4613 6.09603 10.4879 5.90385C10.4816 5.94603 10.4769 5.98666 10.4707 6.02885C10.4972 5.84916 10.5441 5.67572 10.6144 5.50853C10.5988 5.54603 10.5832 5.58354 10.5675 5.62104C10.6175 5.50229 10.6785 5.38822 10.7488 5.28197C10.7675 5.25385 10.7863 5.22729 10.8066 5.19916C10.8425 5.1476 10.7816 5.2351 10.7738 5.23978C10.7847 5.23041 10.7941 5.21478 10.8019 5.20385C10.8457 5.15072 10.8925 5.09916 10.941 5.05072C10.9863 5.00541 11.0347 4.96166 11.0847 4.91947C11.0957 4.9101 11.1082 4.90072 11.1207 4.89135C11.1597 4.85853 11.0191 4.96635 11.0879 4.91635C11.1129 4.89916 11.1363 4.88197 11.1613 4.86478C11.2707 4.79135 11.3878 4.72885 11.5097 4.67728C11.4722 4.69291 11.4347 4.70853 11.3972 4.72416C11.5644 4.65541 11.7378 4.60697 11.9175 4.58041C11.8753 4.58666 11.8347 4.59135 11.7925 4.5976C11.9847 4.57104 12.1785 4.57104 12.3707 4.5976C12.3285 4.59135 12.2878 4.58666 12.2457 4.58041C12.4253 4.60697 12.5988 4.65385 12.766 4.72416C12.7285 4.70853 12.691 4.69291 12.6535 4.67728C12.7722 4.72728 12.8863 4.78822 12.9925 4.85853C13.0175 4.87572 13.0425 4.89135 13.066 4.9101C13.0925 4.93041 13.1425 4.97416 13.0347 4.88353C13.0457 4.89291 13.0582 4.90228 13.0707 4.91166C13.1238 4.95541 13.1753 5.00229 13.2238 5.05072C13.3988 5.2226 13.7144 5.23822 13.8863 5.05072C14.0566 4.86479 14.0722 4.5726 13.8863 4.38822C13.5253 4.03197 13.0519 3.76947 12.5488 3.6851C12.005 3.59447 11.4769 3.66322 10.9754 3.89291C10.041 4.32103 9.43942 5.37416 9.53786 6.39603C9.59254 6.94916 9.79879 7.4476 10.1582 7.87104C10.4879 8.2601 10.9597 8.54604 11.455 8.66791C11.9394 8.78822 12.4738 8.77103 12.9441 8.59447C13.4675 8.39603 13.9066 8.05541 14.2191 7.58822C14.7847 6.74447 14.7706 5.54603 14.1675 4.72572C14.08 4.60697 13.9894 4.49291 13.8863 4.38822C13.7128 4.21322 13.3941 4.20228 13.2238 4.38822C13.0503 4.57572 13.0394 4.86322 13.2238 5.05072Z" fill="white"/>
<path d="M13.2239 4.38559C12.8895 4.71996 12.5567 5.05278 12.2223 5.38715C11.6942 5.91528 11.1676 6.44184 10.6395 6.96997C10.5176 7.09185 10.3973 7.21216 10.2754 7.33403C10.102 7.50747 10.0895 7.82622 10.2754 7.99653C10.4629 8.16841 10.7536 8.18247 10.9379 7.99653C11.2723 7.66216 11.6051 7.32935 11.9395 6.99497C12.4676 6.46684 12.9942 5.94028 13.5223 5.41215C13.6442 5.29028 13.7645 5.16997 13.8864 5.04809C14.0598 4.87465 14.0723 4.5559 13.8864 4.38559C13.7004 4.21371 13.4098 4.20121 13.2239 4.38559Z" fill="white"/>
<path d="M6.00703 7.25703H5.85547C4.80703 7.25703 3.94922 6.39922 3.94922 5.35078V4.30859C3.94922 3.26016 4.80703 2.40234 5.85547 2.40234H6.00703C7.05547 2.40234 7.91328 3.26016 7.91328 4.30859V5.35078C7.91328 6.39922 7.05547 7.25703 6.00703 7.25703Z" fill="white"/>
<path d="M6.00812 6.94454C5.92843 6.94454 5.84874 6.9461 5.76905 6.94298C5.73312 6.94142 5.69718 6.93829 5.66124 6.93517C5.64718 6.9336 5.63312 6.93048 5.61905 6.93048C5.7003 6.93517 5.6503 6.93517 5.62843 6.93048C5.5628 6.91954 5.49718 6.90548 5.43155 6.88673C5.36749 6.86954 5.30499 6.8461 5.24405 6.82267C5.19093 6.80235 5.23155 6.8336 5.25187 6.82579C5.24874 6.82735 5.21437 6.8086 5.21437 6.8086C5.18312 6.79454 5.15187 6.77892 5.12218 6.76173C5.06437 6.73048 5.00812 6.69767 4.95499 6.66016C4.94405 6.65235 4.88312 6.6211 4.87999 6.60704C4.88312 6.6211 4.92843 6.6461 4.89405 6.61798C4.87843 6.60548 4.8628 6.59141 4.84718 6.57891C4.79718 6.53673 4.7503 6.49141 4.70499 6.44454C4.68312 6.42266 4.6628 6.39923 4.64249 6.37579C4.63312 6.36485 4.6253 6.35548 4.61593 6.34454C4.60812 6.33516 4.56749 6.26954 4.58937 6.31173C4.61124 6.35548 4.58312 6.30079 4.57687 6.29454C4.56905 6.2836 4.56124 6.27266 4.55343 6.26016C4.53624 6.23516 4.51905 6.2086 4.50343 6.18204C4.46749 6.12266 4.43468 6.06329 4.40499 6.00079C4.40187 5.99298 4.37999 5.96016 4.38312 5.95391C4.38312 5.95548 4.41124 6.02735 4.39093 5.9711C4.37999 5.94141 4.36905 5.91329 4.35812 5.8836C4.33468 5.81798 4.31593 5.74923 4.3003 5.68204C4.29405 5.65079 4.2878 5.61954 4.28155 5.58829C4.28155 5.58829 4.27218 5.54923 4.2753 5.5461C4.2628 5.56173 4.28312 5.61329 4.27687 5.55548C4.26905 5.48673 4.26593 5.41797 4.26593 5.34922C4.26437 5.05391 4.26593 4.75704 4.26593 4.46172C4.26593 4.41329 4.26593 4.36485 4.26593 4.31641C4.26593 4.2836 4.26593 4.25235 4.26749 4.21954C4.26905 4.19141 4.27062 4.16172 4.27374 4.1336C4.2753 4.11641 4.27687 4.09766 4.27999 4.08047C4.28312 4.05079 4.26905 4.15235 4.28155 4.07891C4.30343 3.94297 4.34249 3.81328 4.39249 3.68516C4.40812 3.64297 4.38155 3.69141 4.38468 3.70235C4.38312 3.69922 4.39874 3.6711 4.40187 3.66485C4.41593 3.6336 4.43155 3.60235 4.44874 3.57266C4.48155 3.51172 4.51749 3.45391 4.55499 3.3961C4.56437 3.38203 4.5878 3.33203 4.60343 3.32891C4.57999 3.33516 4.56437 3.37578 4.59874 3.33516C4.60968 3.32266 4.62062 3.3086 4.63155 3.2961C4.6753 3.24453 4.72374 3.19453 4.77218 3.14766C4.80968 3.11172 4.8628 3.0461 4.91124 3.02735C4.90655 3.02891 4.85187 3.0711 4.89718 3.03828C4.90812 3.03047 4.91905 3.02266 4.92999 3.01485C4.96437 2.99141 4.99874 2.96953 5.03312 2.94766C5.08624 2.91485 5.14093 2.88516 5.19718 2.8586C5.20968 2.85235 5.22218 2.84766 5.23468 2.84141C5.29718 2.81016 5.18468 2.86016 5.22687 2.84453C5.2628 2.83203 5.29874 2.81641 5.33468 2.80391C5.39405 2.7836 5.45499 2.76641 5.51593 2.75234C5.54718 2.74453 5.57843 2.73828 5.60968 2.73359C5.61749 2.73203 5.65655 2.72109 5.6628 2.72422C5.64874 2.72578 5.63624 2.72734 5.62218 2.72891C5.63624 2.72734 5.6503 2.72578 5.66437 2.72422C5.76749 2.71328 5.86905 2.71484 5.97218 2.71484C6.01437 2.71484 6.05655 2.71484 6.09874 2.71641C6.13155 2.71797 6.16437 2.71953 6.19562 2.72266C6.20812 2.72422 6.23937 2.72109 6.24874 2.72891C6.23468 2.72734 6.22218 2.72578 6.20812 2.72422C6.22218 2.72578 6.23624 2.72891 6.2503 2.73047C6.38155 2.75391 6.50968 2.79141 6.63312 2.83985C6.6753 2.85547 6.62843 2.82891 6.61593 2.83203C6.62374 2.82891 6.65499 2.84922 6.6628 2.85391C6.69093 2.86797 6.71905 2.88047 6.74562 2.8961C6.80655 2.92891 6.86437 2.96485 6.92218 3.00235C6.93312 3.01016 6.94405 3.01797 6.95655 3.02578C6.96437 3.03047 7.01905 3.06016 6.97374 3.03828C6.92999 3.01641 6.98155 3.04453 6.99093 3.05235C7.00187 3.06172 7.0128 3.06953 7.02218 3.07891C7.07374 3.12266 7.12374 3.1711 7.17062 3.21953C7.20655 3.2586 7.27062 3.31016 7.29093 3.3586C7.27062 3.31016 7.2628 3.3211 7.27999 3.34453C7.28937 3.3586 7.3003 3.37266 7.30968 3.38672C7.33155 3.41797 7.35187 3.44922 7.37062 3.48203C7.40343 3.53516 7.43312 3.58985 7.45968 3.6461C7.46593 3.6586 7.47062 3.6711 7.47687 3.6836C7.50812 3.7461 7.45812 3.6336 7.47374 3.67578C7.48624 3.71172 7.50187 3.74766 7.51437 3.7836C7.53468 3.84297 7.55187 3.90391 7.56593 3.96485C7.57374 3.9961 7.57999 4.02735 7.58468 4.0586C7.58624 4.06797 7.59718 4.10547 7.59405 4.11172C7.5878 4.06797 7.5878 4.05703 7.58937 4.08203C7.59093 4.09297 7.59249 4.10391 7.59249 4.11485C7.60655 4.24922 7.60187 4.3836 7.60187 4.51797C7.60187 4.70391 7.60187 4.89141 7.60187 5.07735C7.60187 5.19766 7.60499 5.31954 7.6003 5.43985C7.59874 5.47579 7.59562 5.51173 7.59249 5.54766C7.59093 5.56173 7.5878 5.57579 7.5878 5.58985C7.59249 5.51329 7.59405 5.55079 7.58937 5.56954C7.57687 5.63985 7.5628 5.7086 7.54405 5.77579C7.52687 5.83673 7.50655 5.8961 7.48468 5.95391C7.47999 5.96485 7.44874 6.01329 7.47687 5.97423C7.50499 5.9336 7.47218 5.98516 7.46749 5.99298C7.45343 6.02423 7.4378 6.05548 7.42062 6.08516C7.39093 6.13985 7.35968 6.19298 7.3253 6.24454C7.31749 6.25704 7.27999 6.32579 7.26593 6.32891C7.26749 6.32891 7.31437 6.26954 7.27687 6.31485C7.26437 6.33048 7.2503 6.3461 7.2378 6.36173C7.19718 6.4086 7.15499 6.45391 7.11124 6.4961C7.06905 6.53673 7.01124 6.6086 6.95655 6.63048C7.01593 6.60548 6.98624 6.6086 6.9628 6.62423C6.94874 6.6336 6.93468 6.64454 6.92062 6.65391C6.89874 6.66954 6.8753 6.6836 6.85187 6.69923C6.79405 6.73517 6.73312 6.76954 6.67062 6.79923C6.65499 6.80704 6.6378 6.81329 6.62374 6.8211C6.58468 6.84298 6.69718 6.79298 6.63155 6.81798C6.60499 6.82735 6.57999 6.83829 6.55343 6.84767C6.4878 6.8711 6.42062 6.88985 6.35187 6.90704C6.31749 6.91485 6.28312 6.92267 6.24718 6.92735C6.23312 6.92892 6.21749 6.93048 6.20499 6.9336C6.27218 6.91485 6.24718 6.92892 6.22374 6.93048C6.15343 6.93829 6.08155 6.94454 6.00812 6.94454C5.84405 6.9461 5.6878 7.08829 5.69562 7.25704C5.70343 7.42579 5.83312 7.5711 6.00812 7.56954C6.63468 7.56642 7.25343 7.29454 7.66593 6.8211C8.03624 6.3961 8.22687 5.86798 8.22687 5.30391C8.22687 4.97735 8.22687 4.65079 8.22687 4.32266C8.2253 3.73828 7.99874 3.17422 7.58937 2.75547C7.1628 2.31953 6.5753 2.08984 5.96905 2.08984C5.68937 2.08984 5.41124 2.11484 5.14562 2.20859C4.84562 2.31328 4.57374 2.47578 4.34249 2.69141C3.89562 3.10703 3.64249 3.70235 3.63937 4.31016C3.6378 4.62891 3.63937 4.94766 3.63937 5.26641C3.63937 5.48048 3.65655 5.69298 3.70968 5.90079C3.78937 6.21016 3.93937 6.49141 4.13468 6.73985C4.52374 7.2336 5.12374 7.52892 5.74874 7.56485C5.83468 7.56954 5.92218 7.56798 6.00968 7.56798C6.17374 7.56798 6.32999 7.42423 6.32218 7.25548C6.3128 7.08673 6.18312 6.94454 6.00812 6.94454Z" fill="white"/>
<path d="M10.0293 11.0156V13.5953H1.83398V11.0156C1.83398 9.97656 2.71211 9.14062 3.75117 9.14062H8.14492C9.18242 9.14062 10.0293 9.97656 10.0293 11.0156Z" fill="white"/>
<path d="M9.7168 11.0155C9.7168 11.767 9.7168 12.5186 9.7168 13.2717C9.7168 13.3795 9.7168 13.4873 9.7168 13.5967C9.82148 13.492 9.92461 13.3889 10.0293 13.2842C9.75586 13.2842 9.48398 13.2842 9.21055 13.2842C8.55742 13.2842 7.90586 13.2842 7.25273 13.2842C6.46367 13.2842 5.67617 13.2842 4.88711 13.2842C4.20586 13.2842 3.52305 13.2842 2.8418 13.2842C2.51055 13.2842 2.17773 13.2701 1.84805 13.2842C1.84336 13.2842 1.83867 13.2842 1.83398 13.2842C1.93867 13.3889 2.0418 13.492 2.14648 13.5967C2.14648 12.8795 2.14648 12.1608 2.14648 11.4436C2.14648 11.3139 2.14648 11.1842 2.14648 11.0561C2.14648 11.0061 2.14648 10.9576 2.14961 10.9076C2.15117 10.8858 2.15273 10.8639 2.1543 10.8436C2.15586 10.8233 2.17305 10.7545 2.15273 10.842C2.16055 10.8076 2.16367 10.7717 2.17148 10.7373C2.18867 10.6545 2.21055 10.5733 2.23867 10.4951C2.24492 10.4748 2.25273 10.4561 2.26055 10.4373C2.28555 10.3686 2.23086 10.5014 2.26055 10.4358C2.27461 10.4045 2.29023 10.3733 2.30586 10.342C2.34336 10.2686 2.38555 10.1983 2.43398 10.1311C2.44648 10.1139 2.45742 10.0983 2.46992 10.0811C2.51211 10.0233 2.42461 10.1342 2.47148 10.0795C2.49336 10.053 2.51523 10.0264 2.53867 10.0014C2.59336 9.94045 2.65273 9.88264 2.71523 9.82952C2.73086 9.81545 2.74648 9.80295 2.76211 9.79045C2.81836 9.74514 2.7043 9.83108 2.76367 9.78889C2.7918 9.76858 2.81992 9.74827 2.84805 9.72952C2.9168 9.6842 2.99023 9.64358 3.06523 9.60764C3.08398 9.59827 3.10273 9.59045 3.12148 9.58108C3.18711 9.54983 3.05586 9.60608 3.12461 9.57952C3.15742 9.56702 3.19023 9.55452 3.22305 9.54358C3.30273 9.51702 3.38555 9.49514 3.46836 9.47951C3.48867 9.47483 3.51055 9.4717 3.53086 9.46858C3.6043 9.45451 3.45742 9.47483 3.53242 9.46858C3.56836 9.46545 3.6043 9.46076 3.64023 9.4592C3.67773 9.45764 3.71523 9.45608 3.75273 9.45608C3.77305 9.45608 3.79336 9.45608 3.81211 9.45608C3.9168 9.45608 4.01992 9.45608 4.12461 9.45608C4.51055 9.45608 4.89648 9.45608 5.28242 9.45608C6.12773 9.45608 6.97305 9.45608 7.81836 9.45608C7.91211 9.45608 8.00586 9.45608 8.09961 9.45608C8.11367 9.45608 8.12617 9.45608 8.14023 9.45608C8.21211 9.45608 8.28398 9.46076 8.35586 9.46858C8.40273 9.47326 8.34336 9.46077 8.33711 9.46545C8.34336 9.46077 8.3918 9.47483 8.39961 9.47639C8.44805 9.48576 8.49648 9.4967 8.54336 9.5092C8.6168 9.52952 8.68867 9.55451 8.76055 9.58108C8.8043 9.5967 8.75117 9.57014 8.74336 9.57326C8.74961 9.57014 8.7918 9.59514 8.79961 9.59827C8.84023 9.61702 8.8793 9.63889 8.91836 9.66077C8.98711 9.69983 9.05117 9.74358 9.11523 9.78889C9.15273 9.81545 9.10898 9.77639 9.09961 9.77795C9.10586 9.77639 9.1418 9.81233 9.14648 9.81702C9.1793 9.84514 9.21211 9.87483 9.24336 9.90608C9.29648 9.9592 9.3418 10.017 9.39336 10.0717C9.42305 10.1045 9.34805 10.0092 9.38867 10.0655C9.40117 10.0826 9.41211 10.0983 9.42461 10.1155C9.44961 10.1514 9.47305 10.1889 9.49648 10.2264C9.53555 10.292 9.56523 10.3592 9.59961 10.4264C9.61992 10.467 9.57148 10.353 9.59648 10.4186C9.6043 10.4373 9.61055 10.4576 9.61836 10.4764C9.63242 10.5155 9.64492 10.5561 9.65586 10.5951C9.6668 10.6358 9.67773 10.6764 9.68555 10.717C9.69023 10.7373 9.69336 10.7592 9.69805 10.7795C9.69961 10.7905 9.71992 10.8483 9.70273 10.8014C9.68555 10.7545 9.7043 10.8108 9.7043 10.8233C9.70586 10.8451 9.70898 10.8655 9.71055 10.8873C9.71523 10.928 9.7168 10.9717 9.7168 11.0155C9.71836 11.1795 9.86055 11.3358 10.0293 11.328C10.198 11.3201 10.3434 11.1905 10.3418 11.0155C10.3371 10.2655 9.94805 9.56702 9.3168 9.16545C8.92617 8.91701 8.48398 8.82951 8.0293 8.82951C7.2418 8.82951 6.45586 8.82951 5.66836 8.82951C5.0293 8.82951 4.3918 8.82639 3.75273 8.82951C3.02773 8.83264 2.36055 9.1842 1.9293 9.76389C1.70742 10.0608 1.58242 10.4139 1.53711 10.7795C1.52148 10.9076 1.52148 11.0358 1.52148 11.1639C1.52148 11.9545 1.52148 12.7436 1.52148 13.5342C1.52148 13.5545 1.52148 13.5764 1.52148 13.5967C1.52148 13.7655 1.66523 13.9092 1.83398 13.9092C2.10742 13.9092 2.3793 13.9092 2.65273 13.9092C3.30586 13.9092 3.95742 13.9092 4.61055 13.9092C5.39961 13.9092 6.18711 13.9092 6.97617 13.9092C7.65742 13.9092 8.34023 13.9092 9.02148 13.9092C9.35273 13.9092 9.68555 13.917 10.0152 13.9092C10.0199 13.9092 10.0246 13.9092 10.0293 13.9092C10.198 13.9092 10.3418 13.7655 10.3418 13.5967C10.3418 12.8451 10.3418 12.0936 10.3418 11.3405C10.3418 11.2326 10.3418 11.1248 10.3418 11.0155C10.3418 10.8514 10.198 10.6951 10.0293 10.703C9.86055 10.7108 9.7168 10.8405 9.7168 11.0155Z" fill="white"/>
</svg>
