<svg width="17" height="17" viewBox="0 0 17 17" fill="none" xmlns="http://www.w3.org/2000/svg">
<path d="M1.88889 0C0.840556 0 0 0.840556 0 1.88889V15.1111C0 15.6121 0.199007 16.0925 0.553243 16.4468C0.907478 16.801 1.38792 17 1.88889 17H15.1111C15.6121 17 16.0925 16.801 16.4468 16.4468C16.801 16.0925 17 15.6121 17 15.1111V8.5H15.1111V15.1111H1.88889V1.88889H8.5V0H1.88889ZM13.9589 0.944444C13.7983 0.944444 13.6283 1.01056 13.5056 1.13333L12.3533 2.27611L14.7144 4.63722L15.8667 3.49444C16.1122 3.24889 16.1122 2.83333 15.8667 2.59722L14.4028 1.13333C14.28 1.01056 14.1194 0.944444 13.9589 0.944444ZM11.6828 2.94667L4.72222 9.91667V12.2778H7.08333L14.0439 5.30778L11.6828 2.94667Z" fill="#898989"/>
</svg>
