<svg width="15" height="15" viewBox="0 0 15 15" fill="none" xmlns="http://www.w3.org/2000/svg">
<path fill-rule="evenodd" clip-rule="evenodd" d="M12.6978 11.8493C13.7597 10.5949 14.4 8.97222 14.4 7.2C14.4 3.22355 11.1765 0 7.2 0C3.22355 0 0 3.22355 0 7.2C0 11.1765 3.22355 14.4 7.2 14.4C8.97222 14.4 10.5949 13.7597 11.8493 12.6978L13.9757 14.8243C14.2101 15.0586 14.5899 15.0586 14.8243 14.8243C15.0586 14.5899 15.0586 14.2101 14.8243 13.9757L12.6978 11.8493ZM13.2 7.2C13.2 10.5137 10.5137 13.2 7.2 13.2C3.88629 13.2 1.2 10.5137 1.2 7.2C1.2 3.88629 3.88629 1.2 7.2 1.2C10.5137 1.2 13.2 3.88629 13.2 7.2Z" fill="black"/>
</svg>
