<svg width="16" height="16" viewBox="0 0 16 16" fill="none" xmlns="http://www.w3.org/2000/svg">
<path d="M15.1579 12.6316V13.4737C15.1579 13.9204 14.9805 14.3487 14.6646 14.6646C14.3487 14.9805 13.9204 15.1579 13.4737 15.1579H1.68421C0.749474 15.1579 0 14.4 0 13.4737V1.68421C0 1.23753 0.177443 0.809145 0.493294 0.493294C0.809145 0.177443 1.23753 0 1.68421 0H13.4737C13.9204 0 14.3487 0.177443 14.6646 0.493294C14.9805 0.809145 15.1579 1.23753 15.1579 1.68421V2.52632H7.57895C6.64421 2.52632 5.89474 3.28421 5.89474 4.21053V10.9474C5.89474 11.394 6.07218 11.8224 6.38803 12.1383C6.70388 12.4541 7.13227 12.6316 7.57895 12.6316H15.1579ZM7.57895 10.9474H16V4.21053H7.57895V10.9474ZM10.9474 8.84211C10.6124 8.84211 10.2911 8.70902 10.0542 8.47214C9.81729 8.23525 9.68421 7.91396 9.68421 7.57895C9.68421 7.24394 9.81729 6.92265 10.0542 6.68576C10.2911 6.44887 10.6124 6.31579 10.9474 6.31579C11.2824 6.31579 11.6037 6.44887 11.8406 6.68576C12.0774 6.92265 12.2105 7.24394 12.2105 7.57895C12.2105 7.91396 12.0774 8.23525 11.8406 8.47214C11.6037 8.70902 11.2824 8.84211 10.9474 8.84211Z" fill="white"/>
</svg>
