<svg width="24" height="24" viewBox="0 0 24 24" fill="none" xmlns="http://www.w3.org/2000/svg">
<path d="M3.42473 2.5744C3.36894 2.51861 3.30272 2.47436 3.22983 2.44417C3.15694 2.41398 3.07882 2.39844 2.99993 2.39844C2.92104 2.39844 2.84292 2.41398 2.77003 2.44417C2.69714 2.47436 2.63091 2.51861 2.57513 2.5744C2.51934 2.63018 2.47509 2.69641 2.4449 2.7693C2.41471 2.84218 2.39917 2.9203 2.39917 2.9992C2.39917 3.07809 2.41471 3.15621 2.4449 3.2291C2.47509 3.30198 2.51934 3.36821 2.57513 3.424L6.77513 7.6216C4.69501 9.04039 3.2469 11.2113 2.73593 13.6768C2.71985 13.7539 2.71913 13.8335 2.7338 13.9109C2.74847 13.9883 2.77824 14.0621 2.82142 14.128C2.8646 14.1939 2.92034 14.2507 2.98546 14.295C3.05057 14.3394 3.12379 14.3705 3.20093 14.3866C3.27807 14.4027 3.35762 14.4034 3.43503 14.3887C3.51245 14.3741 3.58622 14.3443 3.65213 14.3011C3.71804 14.2579 3.7748 14.2022 3.81917 14.1371C3.86354 14.072 3.89465 13.9987 3.91073 13.9216C4.13979 12.8134 4.58764 11.762 5.22804 10.829C5.86845 9.89601 6.68855 9.10014 7.64033 8.488L9.53993 10.3864C9.04484 10.7415 8.63294 11.2001 8.33281 11.7303C8.03268 12.2605 7.8515 12.8497 7.80185 13.457C7.7522 14.0642 7.83526 14.675 8.04527 15.2469C8.25528 15.8189 8.58721 16.3383 9.01803 16.7691C9.44885 17.1999 9.96825 17.5318 10.5402 17.7419C11.1121 17.9519 11.7229 18.0349 12.3302 17.9853C12.9374 17.9356 13.5266 17.7544 14.0568 17.4543C14.587 17.1542 15.0456 16.7423 15.4007 16.2472L20.5763 21.424C20.689 21.5367 20.8418 21.6 21.0011 21.6C21.1605 21.6 21.3133 21.5367 21.4259 21.424C21.5386 21.3113 21.6019 21.1585 21.6019 20.9992C21.6019 20.8399 21.5386 20.6871 21.4259 20.5744L3.42593 2.5744H3.42473Z" fill="#9F9FA4"/>
<path d="M12.1487 9.60352L16.1843 13.6391C16.1436 12.5818 15.7054 11.5788 14.9572 10.8306C14.209 10.0824 13.206 9.64415 12.1487 9.60352V9.60352Z" fill="#9F9FA4"/>
<path d="M9.03711 6.492L10.0007 7.4556C10.6536 7.28602 11.3254 7.20013 11.9999 7.2C15.8471 7.2 19.2683 9.9924 20.0879 13.9224C20.1204 14.0783 20.2135 14.215 20.3467 14.3023C20.4799 14.3896 20.6424 14.4205 20.7983 14.388C20.9543 14.3555 21.0909 14.2625 21.1782 14.1292C21.2656 13.996 21.2964 13.8335 21.2639 13.6776C20.3315 9.2076 16.4315 6 11.9999 6C10.9739 6 9.97551 6.1716 9.03711 6.492V6.492Z" fill="#9F9FA4"/>
</svg>
